<!DOCTYPE svg PUBLIC "-//W3C//DTD SVG 20010904//EN" "http://www.w3.org/TR/2001/REC-SVG-20010904/DTD/svg10.dtd">
<svg version="1.0" xmlns="http://www.w3.org/2000/svg" width="767px" height="121px" viewBox="0 0 7670 1210" preserveAspectRatio="xMidYMid meet">
<g id="layer101" fill="#e50914" stroke="none">
 <path d="M100 1076 c0 -12 141 -922 147 -943 5 -22 9 -23 114 -23 104 0 109 1 114 23 10 44 146 899 143 902 -2 1 -37 5 -79 9 l-76 7 -7 -63 c-13 -118 -7 -112 -99 -105 -45 4 -84 12 -88 19 -4 6 -10 41 -14 78 -4 37 -10 71 -13 77 -7 12 -142 30 -142 19z m316 -340 c1 0 -12 -96 -29 -213 -17 -117 -32 -211 -34 -209 -3 2 -63 410 -63 426 0 6 119 2 126 -4z"/>
 <path d="M7338 1062 l-168 -15 0 -468 0 -469 75 0 75 0 0 399 0 399 88 6 c48 4 102 9 120 12 l32 5 0 74 0 75 -27 -1 c-16 -1 -103 -9 -195 -17z"/>
 <path d="M6880 1024 c-80 -7 -148 -13 -152 -13 -5 -1 -8 -203 -8 -451 l0 -450 75 0 75 0 0 384 0 383 68 6 c37 4 91 7 120 7 l52 0 0 75 0 75 -42 -1 c-24 -1 -108 -7 -188 -15z"/>
 <path d="M680 570 l0 -461 96 3 97 3 66 240 66 239 3 -242 2 -242 70 0 70 0 0 444 0 443 -77 7 c-42 3 -77 5 -79 4 -1 -2 -40 -140 -87 -308 l-86 -305 0 311 -1 312 -31 6 c-17 3 -49 6 -70 6 l-39 0 0 -460z"/>
 <path d="M6470 555 l0 -445 75 0 75 0 0 445 0 445 -75 0 -75 0 0 -445z"/>
 <path d="M1214 963 c3 -16 35 -206 71 -423 36 -217 68 -403 71 -412 5 -16 19 -18 114 -18 105 0 110 1 115 23 19 82 143 822 139 829 -3 4 -38 8 -78 8 l-74 0 -7 -57 c-12 -98 -10 -97 -101 -94 -43 1 -82 7 -85 13 -4 6 -10 36 -14 67 -11 94 -8 91 -86 91 l-71 0 6 -27z m312 -290 c-3 -10 -17 -98 -32 -195 -15 -98 -29 -176 -32 -174 -4 4 -61 351 -62 374 0 8 20 12 66 12 57 0 65 -2 60 -17z"/>
 <path d="M6263 983 l-53 -4 0 -190 0 -189 -80 0 -80 0 0 185 0 185 -37 0 c-21 0 -55 -3 -75 -6 l-38 -7 0 -423 0 -424 75 0 75 0 2 177 3 178 78 3 77 3 0 -181 0 -180 80 0 80 0 0 440 0 440 -27 -2 c-16 -1 -52 -3 -80 -5z"/>
 <path d="M1790 537 l0 -425 75 -4 75 -3 0 359 0 359 119 -7 119 -6 4 65 3 65 -40 4 c-22 3 -111 8 -197 12 l-158 6 0 -425z"/>
 <path d="M5530 951 c-46 -14 -87 -40 -113 -71 -41 -48 -49 -115 -45 -393 3 -247 4 -253 28 -295 35 -62 77 -85 169 -90 171 -10 237 49 249 220 l5 78 -77 0 -76 0 0 -63 c0 -81 -17 -107 -70 -107 -70 0 -70 -1 -70 294 0 295 0 296 72 296 54 0 68 -23 68 -113 l0 -77 75 0 75 0 0 65 c0 185 -69 267 -222 264 -24 0 -54 -4 -68 -8z"/>
 <path d="M2297 933 c-4 -3 -7 -70 -7 -149 l0 -142 -86 -254 c-48 -139 -89 -258 -91 -265 -3 -8 20 -12 77 -15 l81 -3 21 70 c11 39 35 120 53 180 18 61 35 103 39 95 3 -8 27 -89 54 -178 l48 -164 72 -1 c42 -1 72 2 72 8 0 6 -41 128 -90 273 l-90 263 0 139 c0 134 -1 138 -22 144 -31 8 -123 8 -131 -1z"/>
 <path d="M4708 908 c-55 -32 -72 -75 -76 -192 -5 -120 7 -164 52 -204 l34 -30 -24 -12 c-13 -8 -33 -33 -45 -57 -18 -37 -21 -57 -17 -117 6 -84 26 -127 78 -159 30 -19 54 -23 173 -27 l137 -5 0 63 0 62 -99 0 c-77 0 -103 4 -115 16 -22 21 -30 58 -23 107 8 55 35 77 98 77 l49 0 0 -45 0 -45 75 0 75 0 0 45 c0 38 3 45 20 45 18 0 20 7 20 65 0 59 -2 65 -21 65 -20 0 -20 4 -17 168 2 92 7 175 12 185 7 15 1 17 -73 17 l-81 0 -7 -31 c-5 -26 -7 -29 -15 -14 -26 46 -147 59 -210 23z m209 -138 c9 -16 12 -58 11 -120 l-3 -95 -50 3 c-67 3 -85 23 -92 100 -10 107 12 145 80 140 33 -2 44 -8 54 -28z"/>
 <path d="M2790 575 l0 -345 -75 0 -76 0 3 -59 3 -60 228 -5 227 -5 0 64 0 65 -75 0 -75 0 0 345 0 345 -80 0 -80 0 0 -345z"/>
 <path d="M3160 511 l0 -411 75 0 75 0 0 405 0 405 -29 0 c-15 0 -49 3 -75 6 l-46 7 0 -412z"/>
 <path d="M3521 907 c-47 -15 -97 -65 -110 -112 -7 -24 -11 -139 -11 -293 0 -264 4 -297 48 -346 31 -35 93 -56 167 -56 92 0 134 13 172 52 42 44 53 76 53 159 l0 69 -70 0 -70 0 0 -51 c0 -50 -12 -87 -34 -101 -19 -13 -74 -8 -90 8 -25 25 -27 47 -24 293 3 217 4 234 22 247 25 18 77 18 101 0 16 -12 20 -29 23 -95 l4 -81 69 0 69 0 0 88 c0 119 -23 166 -99 205 -44 22 -67 27 -120 26 -36 -1 -81 -6 -100 -12z"/>
 <path d="M4025 905 c-77 -27 -125 -105 -125 -202 l0 -43 75 0 75 0 0 48 c0 59 20 82 72 82 44 0 68 -25 68 -71 0 -50 -26 -84 -126 -169 -126 -108 -148 -142 -152 -238 -4 -99 21 -154 88 -189 62 -33 188 -33 251 0 51 28 86 88 91 157 l3 45 -71 3 -71 3 -6 -43 c-7 -49 -27 -68 -73 -68 -57 0 -82 66 -49 129 8 16 57 65 110 110 107 92 139 134 154 203 11 48 2 129 -19 167 -16 31 -68 70 -108 81 -52 14 -139 12 -187 -5z"/>
 </g>

</svg>